# xmcd
# Copyright (C) 1995-1998 Ti Kan
#
# Track frame offsets:
#       150
#       14562
#       32337
#
# Disc length: 641 seconds
#
# Revision: 0
# Processed by: cddbd v1.4PL0 Copyright (c) Steve Scherf et al.
# Submitted via: CD-Transfer v1.0
#
DISCID=18027f03
DTITLE=Supernova - Hi-Fi Superstar
DYEAR=2001
DGENRE=
TTITLE0=Hi-Fi Superstar
TTITLE1=Not Really Happy
TTITLE2=End Of The World
EXTD=
EXTT0=
EXTT1=
EXTT2=
PLAYORDER=
